<svg id="assignment_late" xmlns="http://www.w3.org/2000/svg" width="20" height="20" viewBox="0 0 20 20">
  <path id="Tracé_151" data-name="Tracé 151" d="M0,0H20V20H0Z" fill="none"/>
  <path id="Tracé_152" data-name="Tracé 152"
        d="M9.222,12.2h1.556v1.6H9.222Zm0-6.4h1.556v4.8H9.222Zm6.222-3.2H12.193a2.3,2.3,0,0,0-4.387,0H4.556a1.326,1.326,0,0,0-.311.032,1.55,1.55,0,0,0-.786.44,1.606,1.606,0,0,0-.334.512A1.579,1.579,0,0,0,3,4.2V15.4a1.682,1.682,0,0,0,.124.624,1.7,1.7,0,0,0,.334.512,1.55,1.55,0,0,0,.786.44A1.963,1.963,0,0,0,4.556,17H15.444A1.583,1.583,0,0,0,17,15.4V4.2A1.583,1.583,0,0,0,15.444,2.6ZM10,2.4a.6.6,0,1,1-.583.6A.6.6,0,0,1,10,2.4Zm5.444,13H4.556V4.2H15.444Z" transform="translate(0)" fill="#fff"/>
</svg>
