<svg xmlns="http://www.w3.org/2000/svg" width="20" height="20" viewBox="0 0 21 21">
  <g id="volunteer_activism_black_24dp_1_" data-name="volunteer_activism_black_24dp (1)" transform="translate(0 1)">
    <g id="Groupe_505" data-name="Groupe 505">
      <rect id="Rectangle_208" data-name="Rectangle 208" width="20" height="20" fill="none"/>
    </g>
    <rect id="Rectangle_208-2" data-name="Rectangle 208" width="20" height="20" transform="translate(1 -1)" fill="none"/>
    <path id="Tracé_130" data-name="Tracé 130" d="M15,11.167c2.575-2.342,5-4.533,5-6.417A2.721,2.721,0,0,0,17.25,2,3.014,3.014,0,0,0,15,3.042,3.028,3.028,0,0,0,12.75,2,2.721,2.721,0,0,0,10,4.75C10,6.633,12.425,8.825,15,11.167Zm-2.25-7.5a1.325,1.325,0,0,1,.983.458L15,5.617l1.267-1.492a1.325,1.325,0,0,1,.983-.458A1.061,1.061,0,0,1,18.333,4.75c0,.933-1.7,2.642-3.333,4.158-1.633-1.517-3.333-3.233-3.333-4.158A1.061,1.061,0,0,1,12.75,3.667Z" transform="translate(-0.667 -1.334)" fill="#fff"/>
    <path id="Tracé_131" data-name="Tracé 131" d="M16,15.167H14.333a2.409,2.409,0,0,0-1.558-2.25L7.642,11H1v9.167H6v-1.2l5.833,1.617L18.5,18.5v-.833A2.5,2.5,0,0,0,16,15.167ZM2.667,18.5V12.667H4.333V18.5Zm9.142.342L6,17.233V12.667H7.342l4.85,1.808a.742.742,0,0,1,.475.692,18.353,18.353,0,0,1-1.917-.125l-1.983-.658-.525,1.583,1.983.658a4.153,4.153,0,0,0,1.317.217H16a.84.84,0,0,1,.75.467Z" transform="translate(0.833 -2.834)" fill="#fff"/>
  </g>
</svg>
