<svg xmlns="http://www.w3.org/2000/svg" width="15.238" height="20" viewBox="0 0 15.238 20">
  <path id="Icon_material-lock" data-name="Icon material-lock" d="M19.333,8.167h-.952v-1.9a4.762,4.762,0,0,0-9.524,0v1.9H7.9a1.91,1.91,0,0,0-1.9,1.9V19.6a1.91,1.91,0,0,0,1.9,1.9H19.333a1.91,1.91,0,0,0,1.9-1.9V10.071A1.91,1.91,0,0,0,19.333,8.167Zm-5.714,8.571a1.9,1.9,0,1,1,1.9-1.9A1.91,1.91,0,0,1,13.619,16.738Zm2.952-8.571h-5.9v-1.9a2.952,2.952,0,1,1,5.9,0Z" transform="translate(-6 -1.5)" fill="#c00404"/>
</svg>
