<svg xmlns="http://www.w3.org/2000/svg" width="15" height="19.688" viewBox="0 0 15 19.688">
  <path id="lock_open_FILL0_wght400_GRAD0_opsz48" d="M9.406,8.7h9.141V6.453A3.041,3.041,0,0,0,15.5,3.406a3.041,3.041,0,0,0-3.047,3.047H11.047a4.293,4.293,0,0,1,1.3-3.152,4.47,4.47,0,0,1,6.3,0,4.293,4.293,0,0,1,1.3,3.152V8.7h1.641A1.4,1.4,0,0,1,23,10.109V20.281a1.4,1.4,0,0,1-1.406,1.406H9.406A1.4,1.4,0,0,1,8,20.281V10.109A1.4,1.4,0,0,1,9.406,8.7Zm0,11.578H21.594V10.109H9.406ZM15.5,17a1.76,1.76,0,0,0,1.277-.516,1.675,1.675,0,0,0,.527-1.242,1.845,1.845,0,0,0-.527-1.277,1.708,1.708,0,0,0-2.555,0,1.845,1.845,0,0,0-.527,1.277,1.675,1.675,0,0,0,.527,1.242A1.76,1.76,0,0,0,15.5,17ZM9.406,20.281v0Z" transform="translate(-8 -2)" fill="#c00404"/>
</svg>
