<?xml version="1.0" encoding="utf-8"?>
<svg viewBox="0 0 20 32" xmlns="http://www.w3.org/2000/svg">
  <g transform="matrix(0.00192, -0.000013, -0.000015, -0.002348, -2.715376, 34.059639)" fill="#c00404" stroke="none" style="">
    <path d="M 6874 13215 C 6787 13196 6704 13160 6622 13107 C 6568 13072 6212 12722 5051 11561 L 3550 10060 L 3550 9985 C 3550 9918 3548 9910 3531 9910 C 3520 9910 3510 9915 3508 9921 C 3506 9928 3496 9928 3478 9919 C 3457 9910 3447 9910 3436 9919 C 3424 9929 3335 9845 2916 9425 C 2638 9147 2410 8918 2410 8915 C 2410 8912 2426 8910 2445 8910 L 2441.567 8950.097 L 2057.235 8563.181 C 2057.235 8430.181 2521.568 8406.298 2540.568 8406.298 C 2559.568 8406.298 2658.787 8565.247 2658.787 8698.247 L 2716.437 8916.331 L 2560 8910 L 2600 8910 L 2600 8719 C 2600 8463 2594 8450 2473 8450 L 2420 8450 L 2420 8484 C 2420 8518 2421 8519 2468 8522 L 2515 8525 L 2518 8565 L 2521 8605 L 2500 8583 C 2489 8570 2468 8560 2454 8560 C 2412 8560 2400 8607 2400 8767 C 2400 8873 2397 8901 2388 8892 C 2380 8884 2377 8834 2379 8720 L 2382 8560 L 2340 8560 L 2299 8560 L 2302 8680 C 2304 8746 2308.27 8797.89 2306.27 8797.89 C 2304.27 8797.89 2294.27 8782.338 2283.27 8777.338 C 2266.27 8767.338 2260 8768 2260 8670 L 2260 8560 L 2220 8560 L 2180 8560 L 2180 8627 C 2180 8688 2187.541 8679.338 2173.541 8661.338 C 2165.541 8651.338 2150 8633 2150 8607 L 2150 8559 L 2100 8561 C 2051 8564 2049 8562 1994 8504 C 1908 8414 1862 8353 1824 8279 C 1690 8012 1721 7701 1906 7460 C 1929 7430 2744 6610 3717 5639 C 5347 4010 5491 3869 5565 3826 C 5685 3756 5781 3728 5922 3722 C 6100 3715 6236 3752 6380 3846 C 6424 3875 6602 4047 6926 4372 L 7407 4855 L 7302 5100 C 7245 5235 7196 5347 7194 5349 C 7192 5352 6945 5109 6646 4809 C 6284 4448 6088 4259 6063 4248 C 6019 4228 5926 4225 5866 4242 C 5830 4252 5606 4472 4067 6009 C 3036 7038 2298 7784 2282 7810 C 2259 7848 2255 7866 2255 7930 C 2255 7983 2261 8017 2274 8045 C 2287 8073 3002 8794 4589 10382 C 6399 12193 6895 12683 6930 12699 C 6991 12727 7089 12727 7150 12699 C 7215 12670 10679 9209 10717 9135 C 10746 9079 10746 9082 10742 8768 L 10740 8560 L 10700 8560 L 10660 8560 L 10660 8693 C 10659 8811 10658 8823 10645 8806 C 10634 8791 10630 8757 10630 8673 L 10630 8560 L 10596 8560 C 10574 8560 10560 8566 10556 8576 C 10550 8592 10548 8592 10532 8576 C 10508 8555 10488 8556 10459 8579 L 10435 8598 L 9383 7545 C 8804 6966 8330 6487 8330 6481 C 8330 6467 8519 5998 8529 5988 C 8532 5984 9111 6557 9815 7263 L 11095 8545 L 11092 8693 C 11090 8813 11086 8840 11074 8840 C 11063 8840 11060 8816 11060 8700 L 11060 8560 L 11020 8560 L 10980 8560 L 10980 8735 L 10980 8910 L 11020 8910 C 11051 8910 11060 8906 11060 8893 C 11060 8878 11061 8878 11078 8893 C 11104 8916 11136 8914 11154 8888 L 11170 8866 L 11186 8888 C 11194 8900 11212 8910 11225 8910 C 11246 8910 11249 8916 11255 8968 C 11262 9032 11248 9161 11223 9242 C 11199 9325 11146 9421 11081 9501 C 11048 9542 10235 10361 9273 11321 C 7447 13145 7476 13116 7332 13175 C 7200 13229 7012 13245 6874 13215 Z M 6538 12723 C 6546 12712 6550 12671 6550 12608 C 6550 12518 6548 12510 6531 12510 C 6520 12510 6510 12516 6507 12523 C 6503 12533 6500 12533 6489 12523 C 6450 12485 6403 12545 6426 12604 C 6429 12613 6447 12629 6466 12641 C 6501 12662 6513 12700 6485 12700 C 6477 12700 6470 12693 6470 12685 C 6470 12676 6461 12670 6445 12670 C 6405 12670 6417 12727 6460 12743 C 6483 12752 6524 12741 6538 12723 Z M 5028 11434 C 5048 11420 5050 11411 5050 11314 C 5050 11218 5048 11210 5031 11210 C 5020 11210 5010 11216 5007 11223 C 5004 11232 5000 11232 4987 11222 C 4967 11205 4933 11215 4925 11241 C 4913 11277 4930 11320 4966 11343 C 5000 11365 5012 11400 4985 11400 C 4977 11400 4970 11393 4970 11385 C 4970 11376 4961 11370 4945 11370 C 4925 11370 4920 11375 4920 11394 C 4920 11422 4953 11450 4985 11450 C 4996 11450 5016 11443 5028 11434 Z M 10907 8895 C 10939 8872 10950 8820 10950 8683 L 10950 8560 L 10916 8560 C 10894 8560 10880 8566 10876 8576 C 10870 8592 10868 8592 10852 8576 C 10813 8542 10769 8565 10756 8626 C 10746 8673 10771 8722 10821 8756 C 10852 8777 10866 8794 10868 8813 C 10871 8835 10867 8840 10851 8840 C 10837 8840 10830 8834 10830 8820 C 10830 8803 10823 8800 10789 8800 C 10749 8800 10748 8800 10755 8833 C 10768 8899 10852 8934 10907 8895 Z M 9538 7523 C 9546 7512 9550 7471 9550 7408 C 9550 7317 9549 7310 9530 7310 C 9519 7310 9510 7315 9510 7320 C 9510 7326 9503 7330 9495 7330 C 9487 7330 9480 7325 9480 7319 C 9480 7297 9435 7315 9426 7341 C 9412 7381 9426 7416 9465 7440 C 9501 7462 9513 7500 9485 7500 C 9477 7500 9470 7493 9470 7485 C 9470 7476 9460 7470 9444 7470 C 9422 7470 9419 7474 9422 7497 C 9428 7547 9506 7564 9538 7523 Z"/>
    <path d="M 6309.188 12621.849 C 6292.188 12604.849 6518.376 12388.428 6536.376 12388.428 C 6546.376 12388.428 6656.819 12781.203 6644.788 12801.969 C 6579.4 12914.831 6326.188 12638.849 6309.188 12621.849 Z"/>
    <path d="M 4660.73 11151.428 C 4641.73 11144.428 4952.988 11112.277 4970.988 11112.277 C 4980.988 11112.277 5289.576 11256.151 5289.576 11276.151 C 5289.576 11293.151 5139.117 11643.144 5138.117 11642.144 C 5136.117 11642.144 4666.73 11154.428 4660.73 11151.428 Z"/>
    <path d="M 11252.34 9000.447 C 11440.96 8788.597 10713.386 8109.379 10737.906 8348.402 C 10750.798 8474.075 9890.216 8201.243 10692.519 8860.038 C 10864.527 9001.279 10769.918 9011.598 10767.918 9011.598 C 10765.918 9011.598 10803.959 9504.049 11252.34 9000.447 Z"/>
    <path d="M 9515.694 7621.352 C 9501.026 7638.581 9265.165 7290.138 9279.165 7281.138 C 9292.165 7273.138 9512.341 7159.647 9507.341 7187.647 C 9505.341 7204.647 9731.2 7368.22 9515.694 7621.352 Z"/>
    <path d="M6702 11717 l-342 -342 90 -90 90 -90 345 345 345 345 -87 87 c-48 49 -90 88 -93 88 -3 0 -159 -154 -348 -343z"/>
    <path d="M6952 11467 l-343 -343 158 -155 c161 -158 204 -189 265 -189 55 0 110 44 332 266 232 232 266 276 266 341 0 73 -40 133 -187 284 -75 77 -139 139 -142 139 -3 0 -160 -154 -349 -343z m434 26 c7 -10 14 -26 14 -36 0 -25 -392 -415 -425 -423 -18 -4 -32 -1 -46 12 -20 18 -17 21 203 241 123 123 227 223 232 223 5 0 15 -8 22 -17z"/>
    <path d="M7440 10985 l-345 -345 155 -155 155 -155 69 69 68 69 -61 61 c-33 33 -61 64 -61 69 0 4 33 40 73 80 l73 72 54 -55 53 -54 41 37 c23 20 52 49 65 65 l24 28 -54 55 -54 54 68 67 67 68 60 -60 60 -60 68 68 67 67 -150 150 -150 150 -345 -345z"/>
    <path d="M7802 10617 l-342 -342 75 -75 75 -75 150 150 c83 82 150 147 150 144 0 -3 -47 -90 -104 -194 l-104 -190 79 -80 79 -80 345 345 345 345 -75 75 -75 75 -150 -150 c-82 -82 -150 -148 -150 -145 0 3 45 93 100 200 l99 195 -72 73 c-39 39 -74 72 -77 72 -3 0 -159 -154 -348 -343z"/>
    <path d="M8525 10455 l-68 -66 54 -55 54 -54 -278 -278 -277 -277 90 -90 90 -90 278 278 277 277 53 -52 52 -53 67 68 68 67 -196 196 -196 196 -68 -67z"/>
    <path d="M8680 9745 l-345 -345 90 -90 90 -90 345 345 345 345 -90 90 -90 90 -345 -345z"/>
    <path d="M 3900.621 10115.019 C 3735.162 9854.352 3293.788 9810.033 3311.788 9810.033 C 3319.788 9810.033 3640.621 10158.614 3699.768 10210.951 C 3782.006 10283.721 4066.08 10375.686 3900.621 10115.019 Z"/>
    <path d="M9180 9795 l-64 -65 47 -48 c26 -26 47 -52 47 -57 0 -6 -123 -132 -272 -282 l-273 -273 90 -90 90 -90 277 277 278 278 53 -53 53 -52 67 68 67 67 -193 193 c-106 105 -195 192 -197 192 -3 0 -35 -29 -70 -65z"/>
    <path d="M6710 9824 c-356 -76 -646 -356 -730 -705 -124 -516 179 -1020 699 -1161 111 -31 352 -30 466 1 168 45 348 151 459 272 356 384 346 969 -21 1332 -142 140 -293 222 -486 263 -86 18 -300 17 -387 -2z"/>
    <path d="M9653 9434 c-4 -10 -30 -59 -58 -109 -29 -49 -95 -169 -148 -265 -94 -171 -99 -178 -217 -295 -66 -66 -120 -124 -120 -130 0 -5 35 -45 77 -87 l78 -78 125 124 125 124 280 152 c153 83 282 153 284 156 3 3 -31 41 -76 86 l-81 80 -68 -45 c-38 -24 -108 -72 -156 -105 l-87 -61 78 107 c42 59 91 128 108 153 l32 46 -84 83 c-73 73 -85 81 -92 64z"/>
    <path d="M 4911 9024 C 4784 8990 4777 8983 4150 8356 C 3825 8031 3548 7747 3533 7726 C 3519 7704 3496 7657 3484 7621 L 3461 7555 L 3493 7547 C 3543 7534 3550 7517 3550 7408 C 3550 7307 3547 7300 3509 7320 C 3475 7338 3476 7306 3509 7233 C 3539 7169 3588 7118 4363 6343 C 5035 5672 5195 5517 5239 5495 C 5401 5414 5546 5413 5710 5492 C 5769 5520 5830 5578 6376 6124 C 6926 6675 6979 6730 7007 6790 C 7024 6826 7043 6879 7050 6909 C 7064 6970 7059 7118 7040 7165 C 7029 7193 7007.258 7280.105 6994.258 7262.105 C 6983.258 7248.105 6946.664 7262.606 6892.664 7258.606 L 6814.368 7208.503 L 6864.148 7224.002 C 6864.148 7260.002 6860 7219 6908 7222 C 6953 7225 6955 7226 6958 7259 C 6961 7292 6961 7292 6938 7276 C 6909 7256 6876 7256 6860 7276 C 6852 7284 6845 7327 6842 7371 C 6835 7486 6820 7479 6820 7361 L 6824.148 7255.9 L 6780 7260 L 6740 7260 L 7026.239 7217.59 C 7026.239 7293.59 6737 7539 6734 7543 C 6731 7546 6676.368 7500.898 6668.368 7497.898 C 6657.368 7493.898 6675.11 7312.189 6675.11 7202.189 L 6936.458 6972.984 L 6672.445 7342.005 L 6620 7260 L 6765.194 7391.8 C 6765.194 7509.8 6526.736 7699.909 6513.736 7699.909 C 6500.736 7699.909 6494.587 7526.2 6494.587 7408.2 L 6590 7260 L 6579.038 7374.807 L 6547.336 7399.408 L 6510 7435 L 6510 7610 L 6550 7610 C 6581 7610 6590 7606 6590 7593 C 6590 7578 6582.703 7479.595 6599.703 7494.595 C 6625.703 7518.595 6665 7531.995 6683 7505.995 C 6692 7492.995 6794.413 7483.895 6794.413 7488.895 C 6795.413 7494.895 6391 7894 6013 8271 C 5273 9009 5296 8989 5155 9026 C 5091 9044 4980 9043 4911 9024 Z M 5013 8839 C 5047 8821 5050 8811 5050 8708 C 5050 8618 5048 8610 5031 8610 C 5020 8610 5010 8616 5007 8623 C 5004 8632 5000 8632 4987 8622 C 4965 8603 4931 8616 4924 8646 C 4914 8686 4928 8720 4965 8742 C 5001 8762 5013 8800 4985 8800 C 4977 8800 4970 8793 4970 8785 C 4970 8776 4961 8770 4945 8770 C 4906 8770 4912 8814 4955 8838 C 4980 8852 4987 8853 5013 8839 Z M 6270 7475 L 6270 7260 L 6230 7260 L 6563.355 7194.396 L 6542.614 7511.902 L 6285.413 7681.8 L 6408.381 7665.399 L 6294.89 7694.1 L 6270 7475 Z M 6112 7599 C 6148 7579 6160 7530 6160 7390 L 6160 7260 L 6131 7260 C 6115 7260 6097 7267 6090 7275 C 6078 7289 6075 7289 6060 7275 C 6006 7226 5943 7303 5970 7385 C 5978 7410 5998 7433 6031 7457 C 6065 7481 6080 7499 6080 7514 C 6080 7527 6077 7539 6074 7543 C 6063 7554 6040 7538 6040 7519 C 6040 7504 6033 7500 6000 7500 C 5978 7500 5960 7505 5960 7510 C 5960 7533 5989 7589 6007 7599 C 6031 7613 6086 7613 6112 7599 Z M 6369.774 7529.296 C 6405.774 7509.296 6480 7530 6480 7390 L 6446.813 7272.301 L 6451 7260 C 6435 7260 6417 7267 6410 7275 C 6398 7289 6395 7289 6380 7275 C 6326 7226 6263 7303 6290 7385 C 6298 7410 6318 7433 6351 7457 C 6385 7481 6400 7499 6400 7514 C 6400 7527 6397 7539 6394 7543 C 6383 7554 6360 7538 6360 7519 C 6360 7504 6353 7500 6320 7500 C 6298 7500 6280 7505 6280 7510 C 6280 7533 6309 7589 6327 7599 C 6351 7613 6343.774 7543.296 6369.774 7529.296 Z M 5037 6229 C 5046 6221 5050 6189 5050 6114 C 5050 6018 5048 6010 5031 6010 C 5020 6010 5010 6016 5007 6023 C 5004 6032 5000 6032 4987 6022 C 4967 6005 4933 6015 4925 6041 C 4913 6077 4930 6120 4966 6143 C 5000 6165 5012 6200 4985 6200 C 4977 6200 4970 6193 4970 6185 C 4970 6176 4961 6170 4945 6170 C 4925 6170 4920 6175 4920 6194 C 4920 6242 4994 6264 5037 6229 Z"/>
    <path d="M 4982 8933.274 C 4965 8916.274 4728.95 8584.921 4746.95 8584.921 C 4756.95 8584.921 5146.882 8505.81 5146.882 8529.81 C 5146.882 8568.81 4999 8950.274 4982 8933.274 Z"/>
    <path d="M 6114.078 7732.018 C 6009.665 7756.82 5811.839 7325.797 5811.839 7309.797 C 5811.839 7287.797 6090.632 7092.187 6105.632 7092.187 C 6122.632 7092.187 6192.007 7332.9 6192.007 7370.9 C 6192.007 7420.9 6136.078 7755.018 6114.078 7732.018 Z"/>
    <path d="M6376 7404 c-9 -8 -16 -29 -16 -45 0 -22 5 -29 20 -29 17 0 20 7 20 45 0 50 -2 52 -24 29z"/>
    <path d="M 4772.824 6265.34 C 4753.824 6258.34 4864.247 5986.138 4882.247 5986.138 C 4892.247 5986.138 5163.47 5908.428 5163.47 5928.428 C 5163.47 5945.428 5185.823 6300.038 5184.823 6299.038 C 5182.823 6299.038 4778.824 6268.34 4772.824 6265.34 Z"/>
    <path d="M11171 8753 l0 -88 19 40 c10 22 19 61 19 88 1 41 -2 47 -19 47 -19 0 -20 -6 -19 -87z"/>
    <path d="M10532 8694 c-28 -19 -30 -64 -3 -64 15 0 20 9 23 40 2 22 3 40 3 40 0 0 -11 -7 -23 -16z"/>
    <path d="M 3476.946 7569.968 C 3469.946 7553.968 3460.406 7432.117 3467.406 7427.117 C 3481.406 7419.117 3687.896 7444.227 3621.705 7514.766 C 3603.23 7534.455 3489.946 7598.968 3476.946 7569.968 Z"/>
    <path d="M 3468.054 7560.948 C 3438.103 7544.948 3478.811 7273.253 3501.352 7264.253 C 3515.528 7258.593 3635.382 7367.779 3630.382 7395.779 C 3628.382 7412.779 3480.528 7567.612 3468.054 7560.948 Z"/>
    <path d="M6920 7345 c0 -8 7 -15 16 -15 14 0 14 3 4 15 -7 8 -14 15 -16 15 -2 0 -4 -7 -4 -15z"/>
    <path d="M 7600 6729 C 7485 6707 7359 6612 7287 6494 C 7191 6335 7159 6090 7211 5908 C 7223 5868 7609 4980 7646 4909 L 7662 4877 L 7089 4303 C 6773 3987 6482 3702 6441 3669 C 6287 3544 6131 3488 5935 3488 C 5762 3488 5618 3530 5483 3621 C 5456 3638 5164 3923 4833 4254 L 4230 4855 L 4230 4049 C 4230 3279 4231 3240 4250 3166 C 4290 3008 4382 2886 4503 2829 L 4567 2800 L 5881 2802 L 7196 2805 L 7273 2843 C 7346 2879 7360 2892 7630 3183 C 7784 3349 7931 3506 7955 3531 C 8002 3579 8119.184 3699.8 8093.184 3699.8 C 8085.184 3699.8 7907.494 3652.405 7907.494 3644.405 C 7907.494 3635.405 7903.302 3615.147 7887.302 3615.147 C 7855.302 3615.147 7911 3605 7942 3631 C 7965 3652 8010 3657 8010 3638 C 8010 3632 8013 3630 8017 3633 C 8020 3637 8028 3636 8034 3631 C 8041 3625 8121 3703 8270 3862 C 8394 3994 8539 4148 8592 4204 C 8697 4313 8737 4379 8767 4490 C 8790 4577 8790 4781 8767 4866 C 8752 4922 8685 5079 8228 6134 C 8070 6498 8033 6563 7948 6633 C 7893 6678 7810 6717 7740 6730 C 7680 6741 7663 6741 7600 6729 Z M 8037 6229 C 8046 6221 8050 6189 8050 6114 C 8050 6018 8048 6010 8031 6010 C 8020 6010 8010 6015 8008 6021 C 8005 6029 7998 6029 7982 6019 C 7941 5993 7909 6036 7924 6097 C 7928 6110 7946 6130 7965 6142 C 8001 6162 8013 6200 7985 6200 C 7977 6200 7970 6193 7970 6185 C 7970 6176 7961 6170 7945 6170 C 7925 6170 7920 6175 7920 6194 C 7920 6242 7994 6264 8037 6229 Z M 5013 3639 C 5047 3621 5050 3611 5050 3508 C 5050 3418 5048 3410 5031 3410 C 5020 3410 5010 3416 5007 3423 C 5004 3432 5000 3432 4987 3422 C 4965 3403 4931 3416 4924 3446 C 4914 3486 4928 3520 4965 3542 C 5001 3562 5013 3600 4985 3600 C 4977 3600 4970 3593 4970 3585 C 4970 3576 4961 3570 4945 3570 C 4906 3570 4912 3614 4955 3638 C 4980 3652 4987 3653 5013 3639 Z"/>
    <path d="M 7893.259 6329.585 C 7876.259 6312.585 7752.153 5972.289 7770.153 5972.289 C 7780.153 5972.289 8158.8 5843.799 8112.094 6214.642 C 8107.845 6248.376 7910.259 6346.585 7893.259 6329.585 Z"/>
    <path d="M4982 3508 c-17 -17 -15 -58 3 -58 10 0 15 11 15 35 0 39 -1 40 -18 23z"/>
    <path d="M4582 2595 c-77 -21 -110 -41 -175 -106 -98 -98 -151 -241 -151 -404 0 -109 15 -176 62 -275 60 -128 168 -217 294 -240 68 -13 2398 -13 2466 0 78 14 142 49 202 110 249 250 190 742 -107 891 l-68 34 -1235 2 c-1044 2 -1243 0 -1288 -12z m1956 -272 c8 -11 12 -52 12 -115 0 -90 -2 -98 -19 -98 -11 0 -21 6 -24 13 -4 10 -7 10 -18 0 -39 -38 -86 22 -63 81 3 9 21 25 40 37 35 21 47 59 19 59 -8 0 -15 -7 -15 -15 0 -9 -9 -15 -25 -15 -40 0 -28 57 15 73 23 9 64 -2 78 -20z"/>
    <path d="M6482 2208 c-17 -17 -15 -58 3 -58 10 0 15 11 15 35 0 39 -1 40 -18 23z"/>
    <path d="M 446.679 -111.888 C 431.502 -119.074 416.771 -127.047 402.538 -135.755 C 417.059 -127.72 431.803 -119.747 446.679 -111.888 Z" style="stroke: rgb(0, 0, 0); fill: rgb(253, 253, 253);" transform="matrix(1, 0, 0, -1, 0, 0)"/>
    <rect x="6077.284" y="-2471.955" width="901.415" height="546.72" style="stroke: rgb(0, 0, 0);" transform="matrix(1, 0, 0, -1, 0, 0)"/>
    <rect x="4827.595" y="-3727.385" width="450.707" height="425.226" style="stroke: rgb(0, 0, 0);" transform="matrix(1, 0, 0, -1, 0, 0)"/>
  </g>
</svg>