<svg xmlns="http://www.w3.org/2000/svg" width="14" height="14" viewBox="0 0 14 14">
  <path id="alternate_email_FILL0_wght400_GRAD0_opsz48" d="M11,18a6.816,6.816,0,0,1-2.73-.551A6.989,6.989,0,0,1,4.551,13.73a7.036,7.036,0,0,1,0-5.46A6.989,6.989,0,0,1,8.27,4.551a7.036,7.036,0,0,1,5.46,0A6.989,6.989,0,0,1,17.449,8.27,6.816,6.816,0,0,1,18,11v.927a2.22,2.22,0,0,1-.691,1.654,2.328,2.328,0,0,1-1.689.674,2.443,2.443,0,0,1-1.19-.306,2.08,2.08,0,0,1-.858-.866,2.768,2.768,0,0,1-1.137.884A3.646,3.646,0,0,1,11,14.255a3.171,3.171,0,0,1-2.319-.945A3.128,3.128,0,0,1,7.727,11a3.185,3.185,0,0,1,.954-2.327A3.142,3.142,0,0,1,11,7.71a3.142,3.142,0,0,1,2.319.963A3.185,3.185,0,0,1,14.272,11v.927a1.2,1.2,0,0,0,.394.91,1.347,1.347,0,0,0,.954.368,1.325,1.325,0,0,0,.936-.368,1.2,1.2,0,0,0,.394-.91V11A5.915,5.915,0,0,0,11,5.05,5.915,5.915,0,0,0,5.05,11,5.915,5.915,0,0,0,11,16.95h3.745V18Zm0-4.8a2.159,2.159,0,0,0,1.575-.639A2.115,2.115,0,0,0,13.222,11a2.227,2.227,0,0,0-3.8-1.592A2.165,2.165,0,0,0,8.778,11a2.115,2.115,0,0,0,.647,1.566A2.159,2.159,0,0,0,11,13.2Z" transform="translate(-4 -4)" fill="#c00404"/>
</svg>
