<svg xmlns="http://www.w3.org/2000/svg" width="12.234" height="15.994" viewBox="0 0 12.234 15.994">
  <g id="PICTO_LOT2_x5F_B_TO_C" transform="translate(0 0)">
    <path id="Tracé_37" data-name="Tracé 37" d="M96.119,69.592c-.618-.944-1.235-1.883-1.853-2.827h0a.122.122,0,0,1-.01-.11.142.142,0,0,1,.045-.05h0l.01-.03,1.24-.788a1.185,1.185,0,0,0,.377-1.632l-1.421-2.23a1.18,1.18,0,0,0-1.637-.347L91.258,62.6a1.252,1.252,0,0,0-.527.618l-.035.075a4.068,4.068,0,0,0-.216,1.562,6.8,6.8,0,0,0,.14,1.445,14.725,14.725,0,0,0,.814,2.647c.2.5.422.989.658,1.471s.482.954.773,1.431l-.035-.06c.311.462.633.884.969,1.306s.688.824,1.055,1.22a14.541,14.541,0,0,0,2.054,1.858,7.129,7.129,0,0,0,1.25.738,4.074,4.074,0,0,0,1.507.467h.085a1.263,1.263,0,0,0,.783-.221l1.617-1.03a1.185,1.185,0,0,0,.377-1.632L101.1,72.274a1.18,1.18,0,0,0-1.637-.347l-1.24.788h-.03a.1.1,0,0,1-.065.02.119.119,0,0,1-.1-.055h0q-.889-1.439-1.778-2.873Z" transform="translate(-90.473 -61.385)" fill="#c00404"/>
  </g>
</svg>
