<?xml version="1.0" encoding="utf-8"?>
<svg viewBox="0 0 22 22" xmlns="http://www.w3.org/2000/svg">
  <g transform="matrix(0.006179, 0, 0, -0.005986, -9.636479, 29.200047)" fill="#c00404" stroke="none" style="">
    <path d="M1894 4696 c-60 -19 -107 -58 -140 -118 l-29 -53 -3 -1375 c-2 -918 1 -1391 8 -1424 14 -66 61 -128 123 -162 l52 -29 665 -3 c467 -2 676 0 703 8 41 12 77 58 77 98 0 33 -28 78 -57 91 -16 8 -229 11 -678 11 -581 0 -655 2 -669 16 -14 14 -16 151 -16 1360 0 908 3 1352 10 1365 10 19 33 19 1103 19 837 0 1096 -3 1105 -12 9 -9 12 -196 12 -780 l0 -768 29 -32 c25 -28 36 -33 75 -33 36 0 51 6 73 28 l28 27 0 803 0 802 -28 47 c-34 58 -81 95 -143 114 -67 20 -2236 20 -2300 0z"/>
    <path d="M2975 4329 c-249 -36 -464 -201 -560 -429 -145 -345 3 -749 335 -916 179 -90 369 -103 562 -38 201 67 375 246 445 459 23 70 26 96 27 215 0 120 -3 144 -27 215 -89 267 -314 455 -592 495 -80 11 -107 11 -190 -1z m194 -150 c109 -18 224 -80 307 -164 318 -322 151 -857 -296 -951 -81 -17 -167 -14 -257 10 -188 50 -364 235 -403 423 -18 84 -8 244 19 314 58 152 173 272 319 333 101 43 199 54 311 35z"/>
    <path d="M3449 3822 c-9 -4 -119 -92 -245 -197 -125 -104 -234 -194 -241 -198 -10 -6 -49 26 -133 109 -139 136 -135 134 -177 134 -35 0 -73 -38 -73 -73 0 -21 147 -177 253 -269 49 -43 66 -52 107 -56 37 -3 57 0 83 16 60 35 516 422 522 443 10 29 -12 74 -41 88 -28 12 -32 13 -55 3z"/>
    <path d="M4713 3116 c-74 -35 -133 -94 -229 -227 -46 -65 -105 -135 -130 -158 -55 -49 -128 -75 -210 -76 -55 0 -67 4 -115 37 -30 20 -85 52 -124 70 -58 27 -82 32 -141 33 l-71 0 -190 -127 c-221 -147 -260 -178 -284 -233 -75 -164 82 -504 361 -786 181 -183 343 -278 477 -279 34 0 74 5 90 11 39 14 370 345 395 394 27 52 29 157 3 240 -25 83 -23 165 5 250 34 103 88 152 270 245 218 111 300 203 300 336 0 101 -74 217 -166 264 -73 36 -172 39 -241 6z m193 -131 c46 -27 84 -90 84 -139 0 -42 -37 -103 -83 -137 -23 -17 -91 -56 -152 -86 -180 -91 -257 -153 -301 -247 -19 -38 -44 -53 -68 -39 -28 16 -126 148 -126 170 0 18 15 29 75 57 90 42 154 103 249 238 140 200 217 244 322 183z m-1047 -346 c140 -61 372 -294 481 -485 59 -104 90 -193 90 -262 l0 -57 -78 -78 c-75 -74 -78 -77 -100 -61 -12 8 -22 21 -22 29 0 44 -111 251 -196 365 -111 148 -306 326 -427 390 -68 36 -64 56 27 119 113 78 130 81 225 40z m-362 -250 c131 -56 333 -237 451 -404 142 -200 213 -409 161 -472 -20 -24 -90 -15 -164 21 -198 95 -426 337 -540 571 -127 262 -94 364 92 284z"/>
    <path d="M2220 2693 c-40 -14 -52 -71 -24 -111 l15 -22 488 0 c475 0 488 1 506 20 25 27 22 80 -6 102 -20 17 -57 18 -493 17 -259 0 -478 -3 -486 -6z"/>
    <path d="M2197 2252 c-17 -19 -22 -68 -9 -88 21 -31 54 -34 417 -34 l366 0 26 26 c20 20 24 31 19 56 -12 60 6 58 -416 58 -362 0 -388 -1 -403 -18z"/>
  </g>
</svg>