<svg id="PICTO_LOT_3_B_TO_C" xmlns="http://www.w3.org/2000/svg" width="11.517" height="16" viewBox="0 0 11.517 16">
  <path id="Tracé_286" data-name="Tracé 286" d="M107.1,47.74a5.764,5.764,0,0,1,5.757,5.757,6.506,6.506,0,0,1-1.071,3.585l-4.25,6.423a.523.523,0,0,1-.873,0l-4.25-6.423A6.506,6.506,0,0,1,101.34,53.5a5.764,5.764,0,0,1,5.76-5.76Zm0,14.528,3.818-5.771.01-.015a5.484,5.484,0,0,0,.882-2.986,4.711,4.711,0,1,0-9.422,0,5.484,5.484,0,0,0,.882,2.986l.01.015Zm0-11.29a2.519,2.519,0,1,1-2.519,2.519A2.519,2.519,0,0,1,107.1,50.978Zm0,3.991a1.472,1.472,0,1,0-1.472-1.472,1.472,1.472,0,0,0,1.472,1.472Z" transform="translate(-101.34 -47.74)" fill="#c00404"/>
</svg>
