<svg xmlns="http://www.w3.org/2000/svg" width="15.278" height="10.762" viewBox="0 0 15.278 10.762">
  <g id="PICTO_LOT1_x5F_B_TO_C" transform="translate(0 0)">
    <path id="Union_7" data-name="Union 7" d="M-4143.875,21290.191h-13.7a.792.792,0,0,1-.793-.789v-9.18a.793.793,0,0,1,.793-.793h13.691a.793.793,0,0,1,.794.793v9.18a.8.8,0,0,1-.784.789Zm-13.758-9.965v9.18a.063.063,0,0,0,.062.059h13.691a.066.066,0,0,0,.064-.059v-9.18a.064.064,0,0,0-.061-.062h-13.691a.07.07,0,0,0-.059.008Zm.927,7.721a.444.444,0,0,1-.437-.439v-1.082a1.37,1.37,0,0,1,1.224-1.3l.114-.031c.306-.1.4-.166.441-.3a.756.756,0,0,0-.225-.418l-.09-.086-.025-.033a1.692,1.692,0,0,1-.348-.943,1.663,1.663,0,0,1,.465-1.232,1.7,1.7,0,0,1,1.23-.525h.053a1.683,1.683,0,0,1,1.64,1.682,1.708,1.708,0,0,1-.326.994v.092l-.143.086a.694.694,0,0,0-.192.389c.037.133.135.2.433.3.042.01.076.02.123.033a1.364,1.364,0,0,1,1.223,1.3v1.082a.443.443,0,0,1-.441.438Zm1.676-5.338a.9.9,0,0,0-.253.666,1,1,0,0,0,.172.5l.064.055a1.356,1.356,0,0,1,.421,1.164,1.253,1.253,0,0,1-.944.824.9.9,0,0,1-.159.049c-.446.117-.646.223-.646.557v.754h4.059v-.754c0-.334-.2-.439-.646-.557a1.381,1.381,0,0,1-.163-.049,1.235,1.235,0,0,1-.94-.824,1.326,1.326,0,0,1,.382-1.125l.029-.043.032-.035a.9.9,0,0,0,.188-.555.914.914,0,0,0-.9-.916h-.016a.914.914,0,0,0-.685.295Zm4.615,3.764a.381.381,0,0,1-.383-.381.385.385,0,0,1,.383-.385h1.938a.385.385,0,0,1,.383.385.381.381,0,0,1-.383.381Zm0-1.557a.384.384,0,0,1-.383-.383.383.383,0,0,1,.383-.383h5.346a.383.383,0,0,1,.383.383.384.384,0,0,1-.383.383Zm0-1.553a.383.383,0,0,1-.383-.383.381.381,0,0,1,.383-.381h5.346a.381.381,0,0,1,.383.381.383.383,0,0,1-.383.383Z" transform="translate(4158.365 -21279.43)" fill="#c00404"/>
  </g>
</svg>
