<svg id="heart_broken_black_24dp" xmlns="http://www.w3.org/2000/svg" width="20" height="20" viewBox="0 0 24 24">
  <g id="Groupe_488" data-name="Groupe 488">
    <rect id="Rectangle_198" data-name="Rectangle 198" width="20" height="20" fill="none"/>
  </g>
  <g id="Groupe_489" data-name="Groupe 489">
    <path id="Tracé_100" data-name="Tracé 100"
          d="M16.5,3a5.851,5.851,0,0,0-2.73.69L12,9h3L12,19l1-9H10l1.54-5.39A5.979,5.979,0,0,0,7.5,3,5.447,5.447,0,0,0,2,8.5C2,12.63,6.16,15.68,12,21c5.47-4.94,10-8.26,10-12.5A5.447,5.447,0,0,0,16.5,3ZM10.24,16.73C6.45,13.34,4,11,4,8.5A3.466,3.466,0,0,1,7.5,5a3.9,3.9,0,0,1,1.73.42L7.35,12h3.42Zm4.89-1.2L17.69,7H14.78l.61-1.82A3.533,3.533,0,0,1,16.5,5,3.466,3.466,0,0,1,20,8.5C20,10.71,17.98,12.93,15.13,15.53Z" fill="#da3832"/>
  </g>
</svg>
