<svg id="PICTO_LOT2_x5F_B_TO_C" xmlns="http://www.w3.org/2000/svg" width="27.344" height="25.425" viewBox="0 0 27.344 25.425">
  <path id="Union_8" data-name="Union 8" d="M1.544,25.425A1.573,1.573,0,0,1,0,23.84V3.644A1.573,1.573,0,0,1,1.544,2.056H3.177V.769a.751.751,0,1,1,1.5,0V2.056H9.731V.769a.751.751,0,1,1,1.5,0V2.056h5.06V.769a.751.751,0,1,1,1.5,0V2.056h5.056V.769a.751.751,0,1,1,1.5,0V2.056H25.8a1.569,1.569,0,0,1,1.544,1.588v20.2A1.573,1.573,0,0,1,25.8,25.425ZM1.5,3.644v20.2a.048.048,0,0,0,.045.042H25.8a.048.048,0,0,0,.045-.042V3.644A.049.049,0,0,0,25.8,3.6H24.353V4.33a.752.752,0,1,1-1.5,0V3.6H17.8V4.33a.752.752,0,1,1-1.5,0V3.6h-5.06V4.33a.752.752,0,1,1-1.5,0V3.6H4.679V4.33a.752.752,0,1,1-1.5,0V3.6H1.544A.049.049,0,0,0,1.5,3.644Zm10.8,13.8-2.926-3.17a.788.788,0,0,1,.03-1.091.739.739,0,0,1,1.063.027l2.382,2.58,5.306-5.75a.739.739,0,0,1,1.063-.031.788.788,0,0,1,.026,1.091L13.4,17.443a.738.738,0,0,1-1.092,0Z" fill="#9c3c7a"/>
</svg>
