<svg id="assignment_turned_in" xmlns="http://www.w3.org/2000/svg" width="15" height="19" viewBox="55.66 5.35 15.13 17.29">   <path id="Tracé_123" data-name="Tracé 123" d="M0,0H43.652V44.991H0Z" fill="none"/>   <path id="Tracé_533" data-name="Tracé 533" d="M15.606,7.915,14.421,6.688l-5.538,5.7-2.177-2.23L5.521,11.373,8.883,14.83Zm.84-5.186H12.933a2.489,2.489,0,0,0-4.74,0H4.681a1.433,1.433,0,0,0-.336.035,1.674,1.674,0,0,0-.849.475,1.735,1.735,0,0,0-.361.553A1.706,1.706,0,0,0,3,4.458v12.1a1.817,1.817,0,0,0,.134.674,1.836,1.836,0,0,0,.361.553,1.674,1.674,0,0,0,.849.475,2.122,2.122,0,0,0,.336.026H16.446a1.71,1.71,0,0,0,1.681-1.729V4.458A1.71,1.71,0,0,0,16.446,2.729Zm-5.883-.216a.649.649,0,1,1-.63.648A.644.644,0,0,1,10.563,2.513Zm5.883,14.046H4.681V4.458H16.446Z" transform="translate(52.661 4.347)" fill="#da3832"/> </svg>