<svg id="assignment_turned_in" xmlns="http://www.w3.org/2000/svg" width="67.906" height="44.991" viewBox="0 0 67.906 44.991">
  <path id="Tracé_123" data-name="Tracé 123" d="M0,0H43.652V44.991H0Z" fill="none"/>
  <g id="call_entrant" data-name="call entrant" transform="translate(47.326 5.348)">
    <path id="Tracé_15" data-name="Tracé 15" d="M0,0H20.58V20.58H0Z" fill="none"/>
    <path id="Union_2" data-name="Union 2" d="M0,1C0,.4.52.206.955.206H3.722A.8.8,0,0,1,4.515,1a8.887,8.887,0,0,0,.449,2.824.818.818,0,0,1-.192.817L3.209,5.969a12.167,12.167,0,0,0,5.517,5.466L9.981,9.859a.78.78,0,0,1,.81-.192,9.194,9.194,0,0,0,2.824.448.8.8,0,0,1,.793.79v2.763a.842.842,0,0,1-.793.945A13.731,13.731,0,0,1,0,1ZM7.821,3.293h2.47V0h1.646V3.293h2.47L11.115,6.586Z" transform="translate(3.085 2.881)" fill="#9c3c7a"/>
  </g>
</svg>
