<svg xmlns="http://www.w3.org/2000/svg" width="18.757" height="14" viewBox="0 0 18.757 14">
  <g id="PICTO_LOT1_x5F_B_TO_B" transform="translate(-40.866 -83.266)" style="mix-blend-mode: normal;isolation: isolate">
    <path id="Tracé_174" data-name="Tracé 174" d="M59.036,97.266H41.454a.591.591,0,0,1-.588-.588V83.854a.591.591,0,0,1,.588-.588H59.036a.591.591,0,0,1,.588.588l-.005,12.831A.582.582,0,0,1,59.036,97.266ZM42.03,96.1H58.454l0-11.672H42.03Z" transform="translate(0)" fill="#c00404"/>
    <path id="Tracé_175" data-name="Tracé 175" d="M51.568,103.7a1.3,1.3,0,0,1-1.009-.509l-8.185-9.428.786-1.017,8.2,9.442a.269.269,0,0,0,.211.113.254.254,0,0,0,.2-.1l7.907-9.447.8,1-7.9,9.442A1.3,1.3,0,0,1,51.568,103.7Z" transform="translate(-1.408 -8.847)" fill="#c00404"/>
  </g>
</svg>
