<svg id="h" xmlns="http://www.w3.org/2000/svg" width="20.29" height="19.695" viewBox="0 0 20.29 19.695">
  <path id="Exclusion_1" data-name="Exclusion 1" d="M1737.085,5142.695h-17.873a1.331,1.331,0,0,1-1.212-1.448v-16.8a1.332,1.332,0,0,1,1.212-1.449h17.865a1.333,1.333,0,0,1,1.213,1.449v16.8a1.344,1.344,0,0,1-1.2,1.447h-.006Zm-8.832-16.641a3.484,3.484,0,0,0-2.447,1.011,3.1,3.1,0,0,0-.244,4.187l.071.086.018.018c.3.291.873,1.026.754,1.445-.162.568-.661.764-1.3.96-.073.022-.164.045-.261.07h-.005l-.019,0c-.79.2-2.433.607-2.433,2.408v2.362c0,.4.325.4.864.417.311.008.749.016,1.234.022.892.012,2.182.025,3.73.037,2.685.022,5.411.035,5.422.035a.522.522,0,0,0,.533-.51v-2.363c0-1.8-1.643-2.211-2.433-2.408l-.01,0c-.106-.027-.2-.05-.275-.074-.635-.2-1.133-.392-1.3-.96-.1-.358.264-.963.648-1.373a3.442,3.442,0,0,0,.83-2.143,3.111,3.111,0,0,0-.306-1.344,3.381,3.381,0,0,0-2.963-1.885h-.015Z" transform="translate(-1718 -5123)" fill="#fff"/>
</svg>
