<svg xmlns="http://www.w3.org/2000/svg" xmlns:xlink="http://www.w3.org/1999/xlink" width="24" height="24" viewBox="0 0 24 24"><defs><style>.a{fill:none;}.b{fill:url(#a);}</style><linearGradient id="a" x1="0.5" x2="0.5" y2="1" gradientUnits="objectBoundingBox"><stop offset="0" stop-color="#86097f"/><stop offset="1" stop-color="#e0091e"/></linearGradient></defs><path class="a" d="M0,0H24V24H0Z"/><path class="b" d="M20,3H5A2.006,2.006,0,0,0,3,5V19a2.006,2.006,0,0,0,2,2H20a2.006,2.006,0,0,0,2-2V5A2.006,2.006,0,0,0,20,3Zm0,2V8H5V5ZM15,19H10V10h5ZM5,10H8v9H5Zm12,9V10h3v9Z"/></svg>