<svg xmlns="http://www.w3.org/2000/svg" xmlns:xlink="http://www.w3.org/1999/xlink" width="25.613" height="22.665" viewBox="0 0 25.613 22.665">
  <defs>
    <clipPath id="clip-path">
      <rect id="Rectangle_398" data-name="Rectangle 398" width="25.613" height="19.528" fill="#fff"/>
    </clipPath>
  </defs>
  <g id="Groupe_1523" data-name="Groupe 1523" transform="translate(0 -1)">
    <g id="Groupe_1520" data-name="Groupe 1520" transform="translate(0 4.137)">
      <g id="Groupe_1519" data-name="Groupe 1519" transform="translate(0 0)" clip-path="url(#clip-path)">
        <path id="Tracé_561" data-name="Tracé 561" d="M10.939,21.1a.154.154,0,0,0,.131.215,3.637,3.637,0,0,0,3.483-2.129.141.141,0,0,0-.126-.206,3.636,3.636,0,0,0-3.488,2.12" transform="translate(-7.995 -13.887)" fill="#fff"/>
        <path id="Tracé_562" data-name="Tracé 562" d="M1.351,13.576a.154.154,0,0,0-.215.131,3.637,3.637,0,0,0,2.129,3.484.141.141,0,0,0,.206-.126,3.637,3.637,0,0,0-2.12-3.489" transform="translate(-0.826 -9.925)" fill="#fff"/>
        <path id="Tracé_563" data-name="Tracé 563" d="M15.561.149A.154.154,0,0,0,15.35.011a3.637,3.637,0,0,0-2.238,3.415.142.142,0,0,0,.2.133A3.637,3.637,0,0,0,15.561.149" transform="translate(-9.595 0)" fill="#fff"/>
        <path id="Tracé_564" data-name="Tracé 564" d="M14.342,34.642a.155.155,0,0,0,.21.139,3.637,3.637,0,0,0,2.254-3.4.141.141,0,0,0-.2-.134,3.637,3.637,0,0,0-2.263,3.4" transform="translate(-10.494 -22.853)" fill="#fff"/>
        <path id="Tracé_565" data-name="Tracé 565" d="M.15,35.736a.154.154,0,0,0-.139.21,3.636,3.636,0,0,0,3.4,2.255.141.141,0,0,0,.134-.2,3.637,3.637,0,0,0-3.4-2.263" transform="translate(0 -26.149)" fill="#fff"/>
        <path id="Tracé_566" data-name="Tracé 566" d="M24.2,46.793a.154.154,0,0,0,.252-.016A3.638,3.638,0,0,0,24.19,42.7a.141.141,0,0,0-.241.015,3.637,3.637,0,0,0,.252,4.075" transform="translate(-17.159 -31.204)" fill="#fff"/>
        <path id="Tracé_567" data-name="Tracé 567" d="M10.152,57.868a.154.154,0,0,0,.016.251,3.636,3.636,0,0,0,4.074-.263.142.142,0,0,0-.015-.241,3.637,3.637,0,0,0-4.075.252" transform="translate(-7.387 -41.794)" fill="#fff"/>
        <path id="Tracé_568" data-name="Tracé 568" d="M39.932,53.977a.154.154,0,0,0,.23-.1,3.637,3.637,0,0,0-1.657-3.731.141.141,0,0,0-.221.1,3.637,3.637,0,0,0,1.648,3.735" transform="translate(-27.984 -36.674)" fill="#fff"/>
        <path id="Tracé_569" data-name="Tracé 569" d="M30.148,67.107a.154.154,0,0,0,.1.23A3.637,3.637,0,0,0,33.98,65.68a.142.142,0,0,0-.1-.221,3.637,3.637,0,0,0-3.734,1.648" transform="translate(-22.044 -47.87)" fill="#fff"/>
        <path id="Tracé_570" data-name="Tracé 570" d="M20.1,24.66a10.067,10.067,0,0,1-5.12-1.155,9.153,9.153,0,0,1-3.811-3.641l-.3-.6c-.048-.1-.1-.2-.145-.3l-.117-.313-.233-.626-.166-.646a11.407,11.407,0,0,1-.3-2.635,9.556,9.556,0,0,1,1.38-5.037l.032.018a10.345,10.345,0,0,0-1.1,5.015,10.832,10.832,0,0,0,1.29,4.928,9.045,9.045,0,0,0,1.577,2.006l.226.227c.08.07.165.135.248.2l.5.4a10.558,10.558,0,0,0,1.091.675A12.022,12.022,0,0,0,20.1,24.511Z" transform="translate(-7.246 -7.105)" fill="#fff"/>
        <path id="Tracé_571" data-name="Tracé 571" d="M74.6,21.1a.154.154,0,0,1-.131.215,3.637,3.637,0,0,1-3.483-2.129.141.141,0,0,1,.126-.206A3.636,3.636,0,0,1,74.6,21.1" transform="translate(-51.935 -13.887)" fill="#fff"/>
        <path id="Tracé_572" data-name="Tracé 572" d="M87.739,13.576a.154.154,0,0,1,.215.131,3.638,3.638,0,0,1-2.129,3.484.142.142,0,0,1-.206-.126,3.637,3.637,0,0,1,2.12-3.489" transform="translate(-62.651 -9.925)" fill="#fff"/>
        <path id="Tracé_573" data-name="Tracé 573" d="M73.236.149a.154.154,0,0,1,.211-.138,3.637,3.637,0,0,1,2.238,3.415.142.142,0,0,1-.2.133A3.637,3.637,0,0,1,73.236.149" transform="translate(-53.589 0)" fill="#fff"/>
        <path id="Tracé_574" data-name="Tracé 574" d="M74.41,34.642a.155.155,0,0,1-.21.139,3.637,3.637,0,0,1-2.255-3.4.141.141,0,0,1,.2-.134,3.637,3.637,0,0,1,2.263,3.4" transform="translate(-52.646 -22.853)" fill="#fff"/>
        <path id="Tracé_575" data-name="Tracé 575" d="M85.616,35.736a.154.154,0,0,1,.139.21,3.637,3.637,0,0,1-3.4,2.255.141.141,0,0,1-.134-.2,3.637,3.637,0,0,1,3.4-2.263" transform="translate(-60.153 -26.149)" fill="#fff"/>
        <path id="Tracé_576" data-name="Tracé 576" d="M67.179,46.793a.154.154,0,0,1-.252-.016A3.638,3.638,0,0,1,67.19,42.7a.141.141,0,0,1,.241.015,3.637,3.637,0,0,1-.252,4.075" transform="translate(-48.608 -31.204)" fill="#fff"/>
        <path id="Tracé_577" data-name="Tracé 577" d="M73.85,57.868a.154.154,0,0,1-.016.251,3.637,3.637,0,0,1-4.074-.263.142.142,0,0,1,.015-.241,3.637,3.637,0,0,1,4.075.252" transform="translate(-51.002 -41.794)" fill="#fff"/>
        <path id="Tracé_578" data-name="Tracé 578" d="M50.147,53.977a.154.154,0,0,1-.23-.1,3.637,3.637,0,0,1,1.657-3.731.141.141,0,0,1,.221.1,3.637,3.637,0,0,1-1.648,3.735" transform="translate(-36.482 -36.674)" fill="#fff"/>
        <path id="Tracé_579" data-name="Tracé 579" d="M54.747,67.107a.154.154,0,0,1-.1.23,3.637,3.637,0,0,1-3.731-1.657.142.142,0,0,1,.1-.221,3.637,3.637,0,0,1,3.735,1.648" transform="translate(-37.238 -47.87)" fill="#fff"/>
        <path id="Tracé_580" data-name="Tracé 580" d="M47.569,24.511a12.022,12.022,0,0,0,4.951-1.326,10.631,10.631,0,0,0,1.091-.675l.5-.4c.082-.068.167-.133.247-.2l.226-.226a9.045,9.045,0,0,0,1.577-2.006,10.832,10.832,0,0,0,1.29-4.928,10.348,10.348,0,0,0-1.1-5.015l.032-.018a9.556,9.556,0,0,1,1.38,5.037,11.409,11.409,0,0,1-.3,2.635l-.166.646-.233.626-.117.313c-.04.1-.1.2-.145.3l-.3.6A9.153,9.153,0,0,1,52.689,23.5a10.07,10.07,0,0,1-5.12,1.155Z" transform="translate(-34.808 -7.105)" fill="#fff"/>
      </g>
    </g>
    <text id="_2" data-name="2" transform="translate(10.093 12)" fill="#fff" font-size="10" font-family="SegoeUI-Bold, Segoe UI" font-weight="700"><tspan x="0" y="0">2</tspan></text>
  </g>
</svg>
