<svg id="Body" xmlns="http://www.w3.org/2000/svg" viewBox="0 0 80 80" width="16px" height="16px"><defs><style>.cls-1{fill:#C00404;}</style></defs><path class="cls-1" d="M69.34,66.33,65.28,62.7A34.05,34.05,0,0,0,39.9,6V.5A39.5,39.5,0,0,1,69.34,66.33Z"/><polygon class="cls-1" points="50.23 54.19 37.17 41.13 37.17 15.48 42.62 15.48 42.62 38.87 54.08 50.33 50.23 54.19"/><path class="cls-1" d="M39.9,79.5a39.74,39.74,0,0,1-5.35-.36l.73-5.4a34.67,34.67,0,0,0,7.55.19l.47,5.43C42.18,79.45,41,79.5,39.9,79.5Zm12-1.85-1.65-5.2a33.46,33.46,0,0,0,6.89-3.07l2.76,4.7A39.55,39.55,0,0,1,51.89,77.65ZM26.05,77a39.27,39.27,0,0,1-7.81-4l3-4.56A33.82,33.82,0,0,0,28,71.9ZM11.5,67.45a39.12,39.12,0,0,1-5.36-6.93l4.66-2.83a34.23,34.23,0,0,0,4.62,6Zm-9-14.87A39.69,39.69,0,0,1,.6,44L6,43.47a34.45,34.45,0,0,0,1.59,7.38ZM6.09,35.91.68,35.26a39.49,39.49,0,0,1,2-8.53l5.13,1.83A34.16,34.16,0,0,0,6.09,35.91Zm5-14.13L6.53,18.86A39.88,39.88,0,0,1,12,12l3.85,3.86A34.32,34.32,0,0,0,11.12,21.78Zm10.64-10.6L18.85,6.57a39.53,39.53,0,0,1,7.88-3.82l1.82,5.13A33.81,33.81,0,0,0,21.76,11.18Z"/></svg>
