<svg xmlns="http://www.w3.org/2000/svg" xmlns:xlink="http://www.w3.org/1999/xlink" width="16" height="16" viewBox="0 0 16 16">
  <defs>
    <linearGradient id="linear-gradient" x1="0.5" x2="0.5" y2="1" gradientUnits="objectBoundingBox">
      <stop offset="0" stop-color="#da3832"/>
      <stop offset="1" stop-color="#9c3c7a"/>
    </linearGradient>
  </defs>
  <path id="insert_chart_FILL0_wght400_GRAD0_opsz48" d="M9.644,18.511h1.333V12.4H9.644Zm3.689,0h1.333V9.489H13.333Zm3.689,0h1.333V15.222H17.022ZM7.333,22A1.367,1.367,0,0,1,6,20.667V7.333A1.367,1.367,0,0,1,7.333,6H20.667A1.367,1.367,0,0,1,22,7.333V20.667A1.367,1.367,0,0,1,20.667,22Zm0-1.333H20.667V7.333H7.333Zm0-13.333v0Z" transform="translate(-6 -6)" fill="url(#linear-gradient)"/>
</svg>
