<?xml version="1.0" encoding="UTF-8"?>
<svg id="Calque_1" data-name="Calque 1" xmlns="http://www.w3.org/2000/svg" viewBox="0 0 445.98 173.18">
  <defs>
    <style>
      .cls-1 {
        fill: #fff;
      }
    </style>
  </defs>
  <path class="cls-1" d="M257.05,123.83c0,2.14,1.74,3.88,3.88,3.88h8.68c2.14,0,3.88-1.74,3.88-3.88v-32.41c0-1.67,1.35-3.02,3.01-3.02h12c4.4,0,7.96-3.56,7.96-7.96v-3.16c0-1.46-1.19-2.65-2.65-2.65h-16.61c-2.05,0-3.71-1.66-3.71-3.71v-24.31c0-2.14-1.74-3.88-3.88-3.88h-8.68c-2.14,0-3.88,1.74-3.88,3.88V123.83Z"/>
  <g>
    <path class="cls-1" d="M58.88,79.2H26.06c-2.81,0-5.09-2.28-5.09-5.09h0c0-2.62,2.12-4.74,4.74-4.74H58.88c1.76,0,3.18,1.42,3.18,3.18v3.47c0,1.76-1.42,3.18-3.18,3.18Z"/>
    <path class="cls-1" d="M59.65,92.51h-20.05c-2.77,0-5.02-2.25-5.02-5.02h0c0-2.66,2.15-4.81,4.81-4.81h18.36c2.38,0,4.31,1.93,4.31,4.31v3.11c0,1.33-1.08,2.41-2.41,2.41Z"/>
    <path class="cls-1" d="M59.66,105.82h-6.55c-2.72,0-4.92-2.2-4.92-4.92h0c0-2.71,2.2-4.91,4.91-4.91h4.26c2.59,0,4.69,2.1,4.69,4.69v2.74c0,1.32-1.07,2.39-2.39,2.39Z"/>
  </g>
  <g>
    <path class="cls-1" d="M387.1,79.2h32.81c2.81,0,5.09-2.28,5.09-5.09h0c0-2.62-2.12-4.74-4.74-4.74h-33.16c-1.76,0-3.18,1.42-3.18,3.18v3.47c0,1.76,1.42,3.18,3.18,3.18Z"/>
    <path class="cls-1" d="M386.33,92.51h20.05c2.77,0,5.02-2.25,5.02-5.02h0c0-2.66-2.15-4.81-4.81-4.81h-18.36c-2.38,0-4.31,1.93-4.31,4.31v3.11c0,1.33,1.08,2.41,2.41,2.41Z"/>
    <path class="cls-1" d="M386.31,105.82h6.55c2.72,0,4.92-2.2,4.92-4.92h0c0-2.71-2.2-4.91-4.91-4.91h-4.26c-2.59,0-4.69,2.1-4.69,4.69v2.74c0,1.32,1.07,2.39,2.39,2.39Z"/>
  </g>
  <g>
    <path class="cls-1" d="M236.59,90.2h-53.1v1.49c.02,8.26,6.72,14.94,14.97,14.94h35.73c2.05,0,3.72,1.67,3.72,3.72v.11c0,2.05-1.67,3.72-3.72,3.72h-45.4c-3,0-5.44,2.43-5.44,5.44v5.82c0,1.31,1.06,2.37,2.37,2.37h60.31c3.04,0,5.51-2.46,5.51-5.5l.03-17.1c.01-8.29-6.7-15.01-14.99-15.01Z"/>
    <path class="cls-1" d="M247,82.76c2.57,0,4.65-2.08,4.65-4.65v-6.59c0-1.32-1.07-2.39-2.39-2.39h-60.35c-3.01,0-5.45,2.44-5.45,5.46v8.17h63.54Z"/>
  </g>
  <path class="cls-1" d="M312.81,69.12h-6.93c-2.63,0-4.75,2.13-4.75,4.75v11.52c0,2.63,2.13,4.75,4.75,4.75h.15c7.92,0,11.53-8.35,11.53-16.27h0c0-2.63-2.13-4.75-4.75-4.75Z"/>
  <path class="cls-1" d="M71.28,44.39c-2.14,0-3.88,1.74-3.88,3.88V122.68c0,2.14,1.74,3.88,3.88,3.88h8.68c2.14,0,3.88-1.74,3.88-3.88v-31.26c0-1.67,1.35-3.02,3.01-3.02h12.16c4.31,0,7.8-3.49,7.8-7.8v-2.65c0-1.46-1.18-2.65-2.65-2.65h-16.61c-2.05,0-3.71-1.66-3.71-3.71v-8.47c0-2.82,2.29-5.11,5.11-5.11h27.23c3.34,0,6.04-2.7,6.04-6.04v-3.55c0-2.23-1.81-4.04-4.04-4.04h-46.9Z"/>
  <path class="cls-1" d="M178.33,82.76v-8.23c0-2.95-2.39-5.34-5.34-5.34h-58.71c-2.37,0-4.29,1.92-4.29,4.29v2.38c0,3.84,3.11,6.95,6.95,6.95l61.39-.05Z"/>
  <path class="cls-1" d="M115.2,90.25c-2.88,0-5.22,2.34-5.22,5.22v18.15c0,7.81,6.33,14.14,14.14,14.14h50.14c2.25,0,4.07-1.82,4.07-4.07v-33.49l-63.13,.05Zm48.45,21.65c0,1.24-1.01,2.25-2.25,2.25h-33.26c-1.92,0-3.48-1.56-3.48-3.48v-6.87c0-1.41,1.14-2.55,2.55-2.55h33.9c1.41,0,2.55,1.14,2.55,2.55v8.1Z"/>
  <path class="cls-1" d="M321.9,90.15v36.48c0,2.11,1.71,3.82,3.82,3.82h6c2.11,0,3.82-1.71,3.82-3.82l-.03-18.37c0-1.77,1.43-3.21,3.21-3.21h9.54c1.17,0,2.23,.68,2.71,1.75l7.86,17.46c2.11,3.76,6.08,6.09,10.4,6.09l8.59-.02c2.18,0,3.56-2.35,2.49-4.26l-11.31-20.23c-.19-.35,.06-.78,.46-.78h0c5.68,0,10.29-4.61,10.29-10.29v-21.06c0-2.69-2.18-4.88-4.88-4.88h-49.05c-2.15,0-3.89,1.74-3.89,3.89v10.16h45.66c1.23,0,2.23,1.14,2.23,2.55v.14c0,3.17-2.25,4.6-5.03,4.6h-42.86Z"/>
</svg>