<svg id="PICTO_LOT2_x5F_B_TO_C" xmlns="http://www.w3.org/2000/svg" width="28.084" height="22.061" viewBox="0 0 28.084 22.061">
  <g id="PICTO_LOT1_x5F_B_TO_B">
    <path id="Tracé_174" data-name="Tracé 174" d="M68.071,105.327H41.746a.91.91,0,0,1-.88-.926V84.192a.91.91,0,0,1,.88-.926H68.071a.91.91,0,0,1,.88.926l-.008,20.218A.9.9,0,0,1,68.071,105.327Zm-25.461-1.834H67.2L67.207,85.1h-24.6Z" transform="translate(-40.866 -83.266)" fill="#da3832"/>
    <path id="Tracé_175" data-name="Tracé 175" d="M56.308,106.971a2.1,2.1,0,0,1-1.529-.661l-12.4-12.247,1.191-1.321,12.423,12.265a.435.435,0,0,0,.319.147.414.414,0,0,0,.3-.129L68.593,92.754l1.214,1.3L57.83,106.317A2.094,2.094,0,0,1,56.308,106.971Z" transform="translate(-42.275 -91.925)" fill="#da3832"/>
  </g>
</svg>
