<svg width="425.2" height="425.2" xmlns="http://www.w3.org/2000/svg" xml:space="preserve" version="1.1">

 <g>
  <title>Layer 1</title>
  <g display="none" class="st0" id="BG_NOIR"/>
  <g id="PICTO"/>
  <g id="LOT4__B_to_C"/>
  <g display="none" class="st0" id="Ancien_fleche"/>
  <g id="APPAREIL_PHOTO"/>
  <g id="Fleche_arrondi"/>
  <g id="Isolation_Mode"/>
  <g id="Layer_1"/>
  <g id="PICTO_LOT4__B_to_C"/>
  <g id="PICTO_LOT_3_B_TO_C"/>
  <g id="PICTO_LOT2_x5F_B_TO_C"/>
  <g id="PICTO_LOT1_x5F_B_TO_C">
   <g id="svg_1">
    <path id="svg_2" stroke-miterlimit="10" stroke-linejoin="round" stroke-linecap="round" stroke-width="21.12" stroke="#E2001A" fill="none" d="m307.8,301.4l0,23.3c0,5.8 -4.7,10.5 -10.5,10.5l-254.7,0c-5.8,0 -10.5,-4.7 -10.5,-10.5l0,-148.2c0,-5.8 4.7,-10.5 10.5,-10.5l23.4,0" class="st3"/>
    <line id="svg_3" stroke-miterlimit="10" stroke-linejoin="round" stroke-linecap="round" stroke-width="21.12" stroke="#E2001A" fill="none" y2="301.4" x2="307.8" y1="299.3" x1="307.8" class="st3"/>
    <line id="svg_4" stroke-miterlimit="10" stroke-linejoin="round" stroke-linecap="round" stroke-width="21.12" stroke="#E2001A" fill="none" y2="299.3" x2="307.8" y1="297.9" x1="307.8" class="st3"/>
   </g>
   <g id="svg_5">
    <path id="svg_6" stroke-miterlimit="10" stroke-linejoin="round" stroke-linecap="round" stroke-width="21.12" stroke="#E2001A" fill="none" d="m346.5,262.6l-0.6,23.6c0,5.9 -4.8,10.8 -10.8,10.8l-254,0c-5.9,0 -10.8,-4.8 -10.8,-10.8l0,-147.7c0,-5.9 4.8,-10.8 10.8,-10.8l28.6,0" class="st3"/>
   </g>
   <line id="svg_7" stroke-miterlimit="10" stroke-width="21.12" stroke="#E2001A" fill="none" y2="364.6" x2="170.1" y1="340.1" x1="170.1" class="st4"/>
   <line id="svg_8" stroke-miterlimit="10" stroke-linejoin="round" stroke-linecap="round" stroke-width="21.12" stroke="#E2001A" fill="none" y2="373.1" x2="239.3" y1="373.1" x1="100.9" class="st3"/>
   <path id="svg_9" stroke-miterlimit="10" stroke-linejoin="round" stroke-linecap="round" stroke-width="20.9709" stroke="#E2001A" fill="none" d="m374.6,258.3l-252.4,0c-5.8,0 -10.5,-4.7 -10.5,-10.5l0,-150.9c0,-5.8 4.7,-10.5 10.5,-10.5l252.4,0c5.8,0 10.5,4.7 10.5,10.5l0,150.9c0,5.8 -4.7,10.5 -10.5,10.5z" class="st97"/>
  </g>
  <g id="PICTO_LOT1_x5F_B_TO_B"/>
  <g id="Calque_3"/>
  <g id="Calque_4"/>
  <g id="Calque_1"/>
  <g id="couleur"/>
  <g id="repeteur_wifi"/>
  <g display="none" class="st0" id="NAME_OK"/>
  <g id="COULEUR">
   <g id="Calque_3_00000103967327241087529680000016957524696107870094_"/>
   <g id="Calque_4_00000087394008318922525280000015577298798680396931_"/>
  </g>
  <g display="none" class="st0" id="CHECK"/>
  <g display="none" class="st0" id="PRINT"/>
  <text stroke-linejoin="round" stroke-linecap="round" stroke-opacity="0" font-weight="bold" xml:space="preserve" text-anchor="start" font-family="'Cabin'" font-size="70" id="svg_10" y="200.10001" x="123.60001" stroke-width="20.9709" stroke="#e00000" fill="#e2001a">SFR TV</text>
 </g>
</svg>