<svg id="multipacks" xmlns="http://www.w3.org/2000/svg" width="28.184" height="28.184" viewBox="0 0 28.184 28.184">
  <rect id="Rectangle_3" data-name="Rectangle 3" width="28.184" height="28.184" fill="#ffed00"/>
  <g id="Groupe_230" data-name="Groupe 230" transform="translate(3.4 8.808)">
    <path id="Tracé_88" data-name="Tracé 88" d="M38.416,93.422V90.628l-.935,1.67h-.736l-.934-1.67v2.794H34.4V88.6h1.63l1.084,1.879L38.2,88.6h1.63v4.822Z" transform="translate(-34.38 -88.6)"/>
    <path id="Tracé_89" data-name="Tracé 89" d="M101.764,91.642c0,1.213-.815,1.889-2.187,1.889S97.4,92.845,97.4,91.642V88.6h1.491v3.012c0,.527.278.726.686.726a.633.633,0,0,0,.7-.726V88.6h1.491Z" transform="translate(-91.117 -88.6)"/>
    <path id="Tracé_90" data-name="Tracé 90" d="M149.7,93.422V88.6h1.491v3.589H153.1v1.233Z" transform="translate(-138.218 -88.6)"/>
    <path id="Tracé_91" data-name="Tracé 91" d="M182.382,93.422V89.833H181V88.6h4.255v1.233h-1.382v3.589Z" transform="translate(-166.406 -88.6)"/>
    <path id="Tracé_92" data-name="Tracé 92" d="M229.2,93.422V88.6h1.491v4.822Z" transform="translate(-209.814 -88.6)"/>
    <path id="Tracé_93" data-name="Tracé 93" d="M35.622,150.98v1.213H34.2V147.6h2.257a1.642,1.642,0,0,1,1.839,1.65,1.7,1.7,0,0,1-1.879,1.73Zm0-1.094h.567c.517,0,.646-.328.646-.577,0-.219-.07-.577-.646-.577h-.567Z" transform="translate(-34.2 -141.735)"/>
    <path id="Tracé_94" data-name="Tracé 94" d="M71.941,151.4H70.43l-.249.8H68.7l1.69-4.593h1.62l1.69,4.593H72.18Zm-1.173-1.084H71.6l-.418-1.342Z" transform="translate(-65.27 -141.735)"/>
    <path id="Tracé_95" data-name="Tracé 95" d="M119.522,149.453l1.273.268a2.029,2.029,0,0,1-2.118,1.591,2.409,2.409,0,0,1,.04-4.812,1.881,1.881,0,0,1,2.018,1.432l-1.322.268a.724.724,0,0,0-.716-.567c-.587,0-.835.517-.835,1.243,0,.855.308,1.3.865,1.3A.824.824,0,0,0,119.522,149.453Z" transform="translate(-108.228 -140.744)"/>
    <path id="Tracé_96" data-name="Tracé 96" d="M165.973,152.1l-1.084-1.76h-.358v1.75H163V147.5h1.521v1.611h.348l1.014-1.611h1.69l-1.451,2.147,1.581,2.446h-1.73Z" transform="translate(-150.195 -141.644)"/>
    <path id="Tracé_97" data-name="Tracé 97" d="M210.685,149.82c0-.249-.328-.338-.736-.457l-.249-.07c-.686-.189-1.481-.418-1.481-1.352s.845-1.541,1.968-1.541a1.91,1.91,0,0,1,1.958,1.074l-1.332.418a.67.67,0,0,0-.666-.427c-.258,0-.418.08-.418.268,0,.249.239.308.865.457l.2.05c.666.169,1.4.457,1.4,1.412,0,1.054-.954,1.561-2.048,1.561-1.2,0-1.879-.437-2.048-1.263l1.312-.328a.731.731,0,0,0,.8.517C210.466,150.148,210.685,150.049,210.685,149.82Z" transform="translate(-190.812 -140.654)"/>
  </g>
</svg>
