<svg xmlns="http://www.w3.org/2000/svg" width="13.698" height="16" viewBox="0 0 13.698 16">
  <g id="Groupe_1480" data-name="Groupe 1480" transform="translate(-443 -346.387)">
    <path id="Union_9" data-name="Union 9" d="M6.013,15.813.451,11.987A1.17,1.17,0,0,1,0,11.049L.02,4.368A1.093,1.093,0,0,1,.6,3.36c.03-.014.06-.027.091-.038L6.564.15a1.231,1.231,0,0,1,1.3.079l5.239,3.19.013.007a.938.938,0,0,1,.144.088l0,0h0a1.138,1.138,0,0,1,.43.921v6.671a1.142,1.142,0,0,1-.452.932L7.2,15.839A1.129,1.129,0,0,1,6.62,16,1.073,1.073,0,0,1,6.013,15.813ZM1.047,11.051a.187.187,0,0,0,.031.114l5.08,3.494.009-7.293-5.1-2.987Zm6.142,3.558,5.467-3.418c-.025.016,0-.019,0-.083V4.437c0-.008,0-.015,0-.021L7.2,7.322ZM6.643,6.446l5.036-2.683-4.4-2.678a.2.2,0,0,0-.217-.029l-5.01,2.7Z" transform="translate(443 346.387)" fill="#26c281"/>
  </g>
</svg>
