<svg xmlns="http://www.w3.org/2000/svg" xmlns:xlink="http://www.w3.org/1999/xlink" width="20" height="20" viewBox="0 0 20 20">
  <defs>
    <clipPath id="clip-path">
      <rect id="Rectangle_314" data-name="Rectangle 314" width="20" height="20" fill="#fff"/>
    </clipPath>
  </defs>
  <g id="Groupe_1299" data-name="Groupe 1299" transform="translate(-16 -739)">
    <g id="Groupe_1020" data-name="Groupe 1020" transform="translate(16 739)" clip-path="url(#clip-path)">
      <path id="Tracé_246" data-name="Tracé 246" d="M11.1,14.208a3.1,3.1,0,1,1,3.1-3.1A3.108,3.108,0,0,1,11.1,14.208Zm0-5A1.9,1.9,0,1,0,13,11.1,1.9,1.9,0,0,0,11.1,9.208Z" transform="translate(-1.104 -1.104)" fill="#fff"/>
      <path id="Tracé_247" data-name="Tracé 247" d="M9.837,19.542a2.271,2.271,0,0,1-2.271-2.271V17.2a.771.771,0,0,0-.5-.7l-.035-.014a.771.771,0,0,0-.848.152l-.047.047a2.272,2.272,0,1,1-3.212-3.213l.047-.047a.771.771,0,0,0,.152-.848l0-.006a.771.771,0,0,0-.705-.467H2.271a2.271,2.271,0,0,1,0-4.542h.067a.771.771,0,0,0,.7-.5q.007-.018.014-.035A.771.771,0,0,0,2.9,6.179l-.047-.047A2.272,2.272,0,1,1,6.065,2.919l.047.047a.771.771,0,0,0,.848.152.6.6,0,0,1,.157-.045A.771.771,0,0,0,7.5,2.41V2.271a2.271,2.271,0,0,1,4.542,0v.075a.771.771,0,0,0,.467.7l.006,0a.771.771,0,0,0,.848-.152l.047-.047a2.272,2.272,0,1,1,3.212,3.213l-.047.047a.771.771,0,0,0-.152.848.6.6,0,0,1,.045.157.771.771,0,0,0,.663.382h.139a2.271,2.271,0,0,1,0,4.542H17.2a.771.771,0,0,0-.7.467l0,.006a.771.771,0,0,0,.152.848l.047.047a2.272,2.272,0,1,1-3.213,3.212l-.047-.047a.771.771,0,0,0-.848-.152l-.006,0a.771.771,0,0,0-.467.705v.139a2.271,2.271,0,0,1-2.271,2.271ZM7.5,15.377a1.979,1.979,0,0,1,1.278,1.8s0,.009,0,.014v.075a1.063,1.063,0,0,0,2.125,0v-.142a1.988,1.988,0,0,1,3.377-1.415l0,0,.05.05a1.063,1.063,0,1,0,1.5-1.5l-.05-.05,0,0a1.988,1.988,0,0,1,1.413-3.377h.077a1.063,1.063,0,0,0,0-2.125h-.142a1.979,1.979,0,0,1-1.814-1.2.6.6,0,0,1-.046-.182,1.979,1.979,0,0,1,.445-2.062l0,0,.05-.05a1.063,1.063,0,1,0-1.5-1.5l-.05.05,0,0a1.988,1.988,0,0,1-3.377-1.413V2.271a1.063,1.063,0,0,0-2.125,0v.142a1.979,1.979,0,0,1-1.2,1.814.6.6,0,0,1-.182.046,1.979,1.979,0,0,1-2.062-.445l0,0-.05-.05a1.063,1.063,0,1,0-1.5,1.5l.05.05,0,0a1.979,1.979,0,0,1,.4,2.166,1.979,1.979,0,0,1-1.8,1.278H2.271a1.063,1.063,0,0,0,0,2.125h.142a1.988,1.988,0,0,1,1.415,3.377l0,0-.05.05a1.063,1.063,0,1,0,1.5,1.5l.05-.05,0,0a1.979,1.979,0,0,1,2.166-.4Z" transform="translate(0.229 0.229)" fill="#fff"/>
    </g>
  </g>
</svg>
