<svg xmlns="http://www.w3.org/2000/svg" width="21.644" height="21.602" viewBox="0 0 21.644 21.602">
  <path id="pdf-_icone" data-name="pdf- icone" d="M1.154,21.6a1.122,1.122,0,0,1-.818-.338A1.114,1.114,0,0,1,0,20.442V6.559A2.808,2.808,0,0,1,.24,5.5a2.8,2.8,0,0,1,.579-.914L4.578.821A2.861,2.861,0,0,1,5.5.24,2.768,2.768,0,0,1,6.556,0h10.8a1.119,1.119,0,0,1,.82.337,1.127,1.127,0,0,1,.336.82V8.229h-.894V.821H6.9c0,.036-.042,6.159,0,6.339H.818V20.729h16.8V16.506h.894v3.937A1.151,1.151,0,0,1,17.358,21.6ZM6.006.962l-.016,0a1.57,1.57,0,0,0-.493.19L1.084,5.678a1.533,1.533,0,0,0-.2.487c-.023.07-.042.13-.062.188H6.17L6.24.892C6.175.915,6.092.938,6.006.962Zm8.952,18.09v-.639h1.274v.639Zm-2.545,0v-.639h1.274v.639Zm-2.548,0v-.639h1.274v.639Zm-2.545,0v-.639H8.593v.639Zm-2.545,0v-.639H6.047v.639Zm-2.548,0v-.639H3.5v.639ZM5.091,16.5V8.229H21.644V16.5Zm.638-.636H21.008v-7H5.729Zm9.33-1.253V10.12h2.566v.641H15.7v1.284h1.6v.642H15.7v1.928Zm-3.21,0V10.12h1.285A1.284,1.284,0,0,1,14.419,11.4V13.33a1.286,1.286,0,0,1-1.285,1.284Zm.646-.644h.638a.642.642,0,0,0,.641-.641V11.4a.641.641,0,0,0-.641-.644H12.5Zm-3.856.644V10.12h1.926a.641.641,0,0,1,.644.641v1.605a.639.639,0,0,1-.644.641H9.283v1.607Zm.644-2.248h1.282V10.761H9.283Z"/>
</svg>
