<svg xmlns="http://www.w3.org/2000/svg" width="33.998" height="33.933" viewBox="0 0 33.998 33.933">
  <path id="pdf-_icone" data-name="pdf- icone" d="M1.816,33.933A1.757,1.757,0,0,1,.531,33.4,1.753,1.753,0,0,1,0,32.114V10.3A4.352,4.352,0,0,1,.377,8.633a4.391,4.391,0,0,1,.911-1.438L7.194,1.288A4.416,4.416,0,0,1,8.635.377,4.351,4.351,0,0,1,10.3,0H27.267a1.759,1.759,0,0,1,1.288.528,1.78,1.78,0,0,1,.531,1.29V12.928h-1.4V1.288H10.842c-.008.062-.065,9.675,0,9.958H1.288V32.564H27.682V25.928H8v-13H34v13H29.086v6.187a1.812,1.812,0,0,1-1.819,1.818ZM9,24.926H33v-11H9ZM9.436,1.512l-.024.008a2.433,2.433,0,0,0-.776.3L1.7,8.918a2.514,2.514,0,0,0-.32.766c-.032.11-.065.205-.094.3H9.694L9.8,1.4C9.7,1.438,9.573,1.474,9.436,1.512ZM23.5,29.927v-1h2v1Zm-4,0v-1h2v1Zm-4,0v-1h2v1Zm-4,0v-1h2v1Zm-4,0v-1h2v1Zm-4,0v-1h2v1Zm20.162-6.971V15.9h4.034V16.9H24.667v2.019h2.522v1.008H24.667v3.025Zm-5.041,0V15.9h2.015a2.019,2.019,0,0,1,2.018,2.019V20.94a2.018,2.018,0,0,1-2.018,2.016Zm1.008-1.008h1.007a1.007,1.007,0,0,0,1.008-1.008V17.915A1.009,1.009,0,0,0,20.633,16.9H19.626Zm-6.052,1.008V15.9H16.6A1.01,1.01,0,0,1,17.61,16.9v2.522a1.01,1.01,0,0,1-1.01,1.01H14.584v2.52Zm1.01-3.529H16.6V16.9H14.584Z"/>
</svg>
