<svg xmlns="http://www.w3.org/2000/svg" viewBox="0 0 811.56 474.85"><defs><style>.cls-1{fill:#00e094;}</style></defs><title>redbysfr</title><g id="Calque_2" data-name="Calque 2"><g id="Logo"><path class="cls-1" d="M811.5,208.32V179.69c.33-52,.64-101.13-40.06-141.83C746.67,13.09,710.65,0,667.27,0H520.63V75H355.8v83.17H520.63v75H355.8v83.17H520.63v75H667.27c43.38,0,79.4-13.09,104.17-37.86C812.15,312.64,811.84,262,811.5,208.32Zm-98.24,85.82c-12.6,15.23-28.79,22-52.48,22H603.83V74.94h56.95c23.69,0,39.88,6.79,52.45,22,11.17,13.74,15.13,30.46,15.13,97C728.36,251.49,726.26,278.14,713.26,294.14Z"/><path class="cls-1" d="M205.17,391.22h93.21L218.67,233.41c43-17.92,69.67-62.84,69.67-110.55C288.34,50.32,233.49.05,156.75.05L0,0,0,391.22H83.2V247.78h49.51ZM83.2,75H153c31.18,0,52.13,19.73,52.13,48.61,0,32.07-20.95,49.25-52.13,49.25H83.2Z"/><path class="cls-1" d="M545.27,452.5c2.6-1.18,3.78-2.12,4.91-3.8a12.16,12.16,0,0,0,1.86-6.52c0-3.73-1.62-6.71-4.47-8.25-1.81-.93-4.24-1.3-8.64-1.3H525.72L520.63,474h16.45c4.77,0,7.19-.42,9.62-1.8A12.08,12.08,0,0,0,553,461.38a9,9,0,0,0-2.79-6.78A10.12,10.12,0,0,0,545.27,452.5Zm-10.12-11.62h1.93c2.1,0,2.79.12,3.47.5a3.59,3.59,0,0,1,1.55,3.23c0,3.22-1.93,4.6-6.46,4.6h-1.49Zm5.34,23.65c-1.18,1-2.37,1.25-5.53,1.25h-2.85l1.11-9.06h3.17c2.54,0,3.41.12,4.22.54a3.7,3.7,0,0,1,1.62,3.3A4.91,4.91,0,0,1,540.49,464.53Z"/><path class="cls-1" d="M585,442.93a25.75,25.75,0,0,0-2,3.29,42,42,0,0,0-2.31-6l-.35-.94-2.86-6.63H565.81l10.55,23L574.06,474h10.5l2.23-18.13,18.06-23.27H592.06Z"/><path class="cls-1" d="M647.46,440.51c2.18,0,4.47,1,7.2,3.05l4.6-7.95a21.46,21.46,0,0,0-12-3.79c-8.89,0-15.23,5.52-15.23,13.22,0,5.34,2.24,8.13,9.58,11.8,3.83,1.92,4.83,2.86,4.83,4.71,0,2.56-2.25,4.16-5.66,4.16-2.67,0-5-.86-8.63-3.35l-4.71,7.95c5.58,3.42,9,4.54,14,4.54s8.57-1.3,11.49-4.1a13.71,13.71,0,0,0,4.34-10.06c0-5.54-2.29-8.44-9.19-11.61-4.28-2-5.27-3-5.27-5S644.61,440.51,647.46,440.51Z"/><polygon class="cls-1" points="671.53 474.03 682.02 474.03 684 457.89 695.94 457.89 697.05 448.76 685.13 448.76 686 441.75 699.1 441.75 700.22 432.63 676.62 432.63 671.53 474.03"/><path class="cls-1" d="M740.48,454.66a13,13,0,0,0,3.36-9.19c0-4.59-1.62-8.44-4.54-10.42-2.29-1.69-5.45-2.42-10.12-2.42H715.72L710.63,474h10.49l2-16.45L733,474h12.17L735,458C737.82,457,739.06,456.21,740.48,454.66Zm-14.77-3.1h-1.85l1.3-10.68h2c4.53,0,6,1.24,6,5S730.68,451.56,725.71,451.56Z"/></g></g></svg>