<svg xmlns="http://www.w3.org/2000/svg" width="16" height="16" viewBox="0 0 16 16">
  <path id="sentiment_satisfied_FILL0_wght400_GRAD0_opsz48" d="M14.92,10.94a1.029,1.029,0,0,0,.77-.32,1.082,1.082,0,0,0-1.53-1.53,1.085,1.085,0,0,0,.76,1.85Zm-5.84,0a1.029,1.029,0,0,0,.77-.32A1.082,1.082,0,0,0,8.32,9.09a1.085,1.085,0,0,0,.76,1.85ZM12,16.38a4.421,4.421,0,0,0,2.43-.71,4.072,4.072,0,0,0,1.61-1.93H15a3.149,3.149,0,0,1-1.26,1.23,3.578,3.578,0,0,1-1.72.43,3.746,3.746,0,0,1-1.75-.42,2.914,2.914,0,0,1-1.25-1.24H7.96a4.208,4.208,0,0,0,1.62,1.93A4.372,4.372,0,0,0,12,16.38ZM12,20a7.79,7.79,0,0,1-3.12-.63,7.987,7.987,0,0,1-4.25-4.25,8.041,8.041,0,0,1,0-6.24A7.987,7.987,0,0,1,8.88,4.63a8.041,8.041,0,0,1,6.24,0,7.987,7.987,0,0,1,4.25,4.25,8.041,8.041,0,0,1,0,6.24,7.987,7.987,0,0,1-4.25,4.25A7.79,7.79,0,0,1,12,20ZM12,12Zm0,6.8A6.761,6.761,0,0,0,18.8,12a6.56,6.56,0,0,0-1.98-4.82A6.56,6.56,0,0,0,12,5.2,6.56,6.56,0,0,0,7.18,7.18,6.56,6.56,0,0,0,5.2,12a6.56,6.56,0,0,0,1.98,4.82A6.56,6.56,0,0,0,12,18.8Z" transform="translate(-4 -4)" fill="#c00404"/>
</svg>
