<svg id="SFR" xmlns="http://www.w3.org/2000/svg" viewBox="0 0 425.2 425.2"><title>SFR_Logo2014_EXE_Marquage_Rouge_avec_Blanc_de_soutien</title><g id="Logo_SFR" data-name="Logo SFR"><rect x="2.84" y="2.84" width="419.53" height="419.53" style="fill:#e1f4fd"/><path id="Logo_SFR-2" data-name="Logo SFR" d="M807.87,633.54H382.68V208.35H807.87ZM614.51,483.42V429.14h50.54V408.75H614.51v-36h58.71V352H592.89V483.42Zm175.58,0-34.18-55.94c18.18-4.78,29.71-15.07,29.71-37.31,0-32.71-26.07-38.19-45.61-38.19H691.45V483.42h21.63V430.48H735l29.39,52.94Zm-77-72.56V371.4h25c21.26,0,25,10.29,25,18.56,0,12.53-6.14,20.9-25.72,20.9Zm-191.63-7.22C505.85,399.27,504,391,504,385.71c0-10.21,7.9-17,22.12-17,9.83,0,18.49,4.2,24.82,12.58l17.13-10c-8.3-12.22-21.18-22.38-42-22.38-24.57,0-44.74,15.27-44.74,37.81,0,22.16,19,32.27,39.36,38l9.41,2.72c17.44,4.61,18.78,12.47,18.78,19.28,0,12.45-13,20.15-24.33,20.15-11.83,0-21.15-3.86-28.76-17.35l-17.14,10.21c11.11,19.07,24.43,26.84,46,26.84,23.8,0,46.8-18.15,46.8-40.83,0-26.86-21.78-34.45-40.63-39.34Z" transform="translate(-382.68 -208.35)" style="fill:#ee3124"/></g></svg>