<svg xmlns="http://www.w3.org/2000/svg" xmlns:xlink="http://www.w3.org/1999/xlink" width="20.301" height="19.697" viewBox="0 0 20.301 19.697">
  <defs>
    <linearGradient id="linear-gradient" x1="0.5" x2="0.5" y2="1" gradientUnits="objectBoundingBox">
      <stop offset="0" stop-color="#da3832"/>
      <stop offset="1" stop-color="#9c3c7a"/>
    </linearGradient>
  </defs>
  <path id="Exclusion_25" data-name="Exclusion 25" d="M1.218,19.7A1.33,1.33,0,0,1,.006,18.249V1.45A1.331,1.331,0,0,1,1.218,0H19.083a1.326,1.326,0,0,1,.908.473,1.34,1.34,0,0,1,.305.976v16.8A1.351,1.351,0,0,1,19.1,19.7ZM12.9,13.854h0V15.19a.649.649,0,0,0,.648.648h1.327a.646.646,0,0,0,.645-.645V6.621a.665.665,0,0,0-.664-.664H12.233V4.625A.625.625,0,0,0,11.611,4H5.629A.628.628,0,0,0,5,4.625V15.193a.628.628,0,0,0,.627.627h1.93a.628.628,0,0,0,.627-.627L8.17,13.834l.968-.012v1.371a.628.628,0,0,0,.627.627h1.846a.625.625,0,0,0,.622-.627V13.857Zm.655,1.337h0V13.854A.65.65,0,0,0,12.9,13.2h-.669V6.611l2.632.01.008,8.563Zm-.464-4.622a.23.23,0,0,0-.232.231v.91a.234.234,0,0,0,.068.165.231.231,0,0,0,.165.068h.943a.23.23,0,0,0,.232-.232V10.8a.23.23,0,0,0-.232-.231Zm0-2.642a.231.231,0,0,0-.165.068.234.234,0,0,0-.068.165v.909a.231.231,0,0,0,.068.165.228.228,0,0,0,.165.068h.943a.23.23,0,0,0,.232-.232V8.159a.23.23,0,0,0-.232-.232ZM10.481,12.6H9.54a.248.248,0,0,1-.167-.068.214.214,0,0,1-.062-.167v-.9a.234.234,0,0,1,.062-.168.27.27,0,0,1,.167-.067h.941a.251.251,0,0,1,.167.067.245.245,0,0,1,.068.168v.9A.236.236,0,0,1,10.481,12.6Zm-2.771,0H6.764a.2.2,0,0,1-.162-.068.223.223,0,0,1-.068-.167v-.9a.246.246,0,0,1,.068-.168.237.237,0,0,1,.162-.067H7.71a.259.259,0,0,1,.162.067.245.245,0,0,1,.068.168v.9A.233.233,0,0,1,7.71,12.6Zm2.772-2.674H9.539a.2.2,0,0,1-.2-.2V8.815a.2.2,0,0,1,.2-.2h.943a.2.2,0,0,1,.2.2v.909A.2.2,0,0,1,10.482,9.925Zm-2.775,0H6.764a.2.2,0,0,1-.2-.2V8.815a.2.2,0,0,1,.2-.2h.943a.2.2,0,0,1,.2.2v.909A.2.2,0,0,1,7.708,9.925Zm2.774-2.613H9.54a.223.223,0,0,1-.235-.23V6.171a.231.231,0,0,1,.068-.162.225.225,0,0,1,.167-.067h.941a.225.225,0,0,1,.167.067.231.231,0,0,1,.068.162v.911A.23.23,0,0,1,10.481,7.313Zm-2.771,0H6.764a.225.225,0,0,1-.23-.23V6.171A.211.211,0,0,1,6.6,6.009a.205.205,0,0,1,.162-.067H7.71a.205.205,0,0,1,.162.067.231.231,0,0,1,.068.162v.911A.228.228,0,0,1,7.71,7.313Z" transform="translate(0)" fill="url(#linear-gradient)"/>
</svg>
