<?xml version="1.0" encoding="utf-8"?>
<!-- Generator: Adobe Illustrator 24.0.3, SVG Export Plug-In . SVG Version: 6.00 Build 0)  -->
<svg version="1.1" id="Calque_1" xmlns="http://www.w3.org/2000/svg" xmlns:xlink="http://www.w3.org/1999/xlink" x="0px" y="0px"
	 viewBox="0 0 52 52" style="enable-background:new 0 0 52 52;" xml:space="preserve">
<path d="M39,26c0-6.3-4.5-11.6-10.5-12.8V0h-5v13.2C17.5,14.4,13,19.7,13,26c0,6.3,4.5,11.6,10.5,12.8v13.7h5V38.8
	C34.5,37.6,39,32.3,39,26z M26,35c-5,0-9-4-9-9c0-5,4-9,9-9c5,0,9,4,9,9C35,31,31,35,26,35z"/>
</svg>
